<svg version="1.1" id="Layer_1" xmlns="http://www.w3.org/2000/svg" xmlns:xlink="http://www.w3.org/1999/xlink" x="0px" y="0px"
	 width="100%" viewBox="0 0 259 259" enable-background="new 0 0 259 259" xml:space="preserve">
<path fill="#010100" opacity="1.000000" stroke="none" 
	d="
M150.000000,260.000000 
	C100.000000,260.000000 50.500000,260.000000 1.000000,260.000000 
	C1.000000,173.666672 1.000000,87.333336 1.000000,1.000000 
	C87.333336,1.000000 173.666672,1.000000 260.000000,1.000000 
	C260.000000,87.333336 260.000000,173.666672 260.000000,260.000000 
	C223.500000,260.000000 187.000000,260.000000 150.000000,260.000000 
M200.924332,170.500015 
	C200.924561,125.858818 200.854370,81.217339 201.027252,36.576813 
	C201.045792,31.789110 199.758698,30.360746 194.900955,30.381813 
	C153.258591,30.562387 111.615120,30.482510 69.971985,30.495834 
	C68.355064,30.496351 66.738190,30.652338 64.844780,30.750168 
	C64.707451,32.539268 64.498535,33.993526 64.498184,35.447830 
	C64.482887,99.245110 64.515816,163.042435 64.414383,226.839554 
	C64.408157,230.750351 65.520790,232.014526 69.514091,232.002609 
	C111.656586,231.876770 153.799774,231.873123 195.942200,232.007980 
	C199.887436,232.020599 201.058884,230.965332 201.014435,226.967697 
	C200.808792,208.480423 200.923721,189.989594 200.924332,170.500015 
z"/>
<path fill="#DAB400" opacity="1.000000" stroke="none" 
	d="
M200.924072,171.000031 
	C200.923721,189.989594 200.808792,208.480423 201.014435,226.967697 
	C201.058884,230.965332 199.887436,232.020599 195.942200,232.007980 
	C153.799774,231.873123 111.656586,231.876770 69.514091,232.002609 
	C65.520790,232.014526 64.408157,230.750351 64.414383,226.839554 
	C64.515816,163.042435 64.482887,99.245110 64.498184,35.447830 
	C64.498535,33.993526 64.707451,32.539268 64.844780,30.750168 
	C66.738190,30.652338 68.355064,30.496351 69.971985,30.495834 
	C111.615120,30.482510 153.258591,30.562387 194.900955,30.381813 
	C199.758698,30.360746 201.045792,31.789110 201.027252,36.576813 
	C200.854370,81.217339 200.924561,125.858818 200.924072,171.000031 
M198.487213,153.500305 
	C198.487213,113.433678 198.487213,73.367043 198.487213,33.281021 
	C154.242569,33.281021 110.706459,33.281021 67.317520,33.281021 
	C67.317520,98.840317 67.317520,164.035934 67.317520,229.159302 
	C111.126366,229.159302 154.535233,229.159302 198.488174,229.159302 
	C198.488174,204.052231 198.488174,179.276276 198.487213,153.500305 
z"/>
<path fill="#030200" opacity="1.000000" stroke="none" 
	d="
M198.487701,154.000305 
	C198.488174,179.276276 198.488174,204.052231 198.488174,229.159302 
	C154.535233,229.159302 111.126366,229.159302 67.317520,229.159302 
	C67.317520,164.035934 67.317520,98.840317 67.317520,33.281021 
	C110.706459,33.281021 154.242569,33.281021 198.487213,33.281021 
	C198.487213,73.367043 198.487213,113.433678 198.487701,154.000305 
M102.400826,141.500687 
	C102.400826,155.244293 102.400826,168.987900 102.400826,182.789154 
	C95.506050,183.388763 89.423569,183.917725 83.268692,184.452988 
	C83.268692,190.117081 83.268692,195.367249 83.268692,200.821640 
	C89.782120,200.141037 95.997589,199.491562 102.139137,198.849808 
	C104.046089,208.296768 100.849419,218.086060 105.956802,226.363281 
	C106.641220,226.312912 107.325630,226.262527 108.010048,226.212143 
	C108.010048,216.969894 108.010048,207.727661 108.010048,197.047455 
	C136.393356,195.593002 164.302704,194.162811 191.687698,192.759506 
	C186.652313,187.733398 179.667648,184.017136 171.827789,183.108124 
	C161.776443,181.942688 151.589417,181.784393 141.452728,181.562134 
	C130.491058,181.321777 119.520035,181.507721 107.964447,181.507721 
	C107.964447,180.480072 107.967384,178.684982 107.964012,176.889877 
	C107.912354,149.399475 107.900307,121.908844 107.742821,94.419044 
	C107.727676,91.774811 106.807289,89.135773 106.064598,85.213402 
	C104.302948,87.161514 103.517662,87.622284 103.506393,88.101257 
	C103.095482,105.566711 102.756516,123.033875 102.400826,141.500687 
M115.882080,55.211037 
	C114.197708,57.596054 112.513344,59.981071 110.828972,62.366089 
	C110.235931,61.898281 109.642891,61.430473 109.049850,60.962666 
	C108.142578,58.585369 107.235306,56.208073 106.022911,53.031288 
	C104.601593,56.165260 103.515984,58.559010 101.743141,62.468067 
	C99.448975,59.175114 97.798409,56.805954 96.147835,54.436794 
	C97.424423,63.027367 98.938698,70.924881 101.226112,78.591728 
	C101.688240,80.140678 105.025215,81.553169 107.129349,81.699753 
	C109.505775,81.865303 111.857079,80.676170 111.816132,77.200119 
	C111.785629,74.610649 112.443909,71.979698 113.037552,69.423447 
	C114.143028,64.663147 115.424904,59.943806 115.882080,55.211037 
z"/>
<path fill="#EFC233" opacity="1.000000" stroke="none" 
	d="
M102.404236,141.000732 
	C102.756516,123.033875 103.095482,105.566711 103.506393,88.101257 
	C103.517662,87.622284 104.302948,87.161514 106.064598,85.213402 
	C106.807289,89.135773 107.727676,91.774811 107.742821,94.419044 
	C107.900307,121.908844 107.912354,149.399475 107.964012,176.889877 
	C107.967384,178.684982 107.964447,180.480072 107.964447,181.507721 
	C119.520035,181.507721 130.491058,181.321777 141.452728,181.562134 
	C151.589417,181.784393 161.776443,181.942688 171.827789,183.108124 
	C179.667648,184.017136 186.652313,187.733398 191.687698,192.759506 
	C164.302704,194.162811 136.393356,195.593002 108.010048,197.047455 
	C108.010048,207.727661 108.010048,216.969894 108.010048,226.212143 
	C107.325630,226.262527 106.641220,226.312912 105.956802,226.363281 
	C100.849419,218.086060 104.046089,208.296768 102.139137,198.849808 
	C95.997589,199.491562 89.782120,200.141037 83.268692,200.821640 
	C83.268692,195.367249 83.268692,190.117081 83.268692,184.452988 
	C89.423569,183.917725 95.506050,183.388763 102.400826,182.789154 
	C102.400826,168.987900 102.400826,155.244293 102.404236,141.000732 
z"/>
<path fill="#F2C700" opacity="1.000000" stroke="none" 
	d="
M116.257721,55.209229 
	C115.424904,59.943806 114.143028,64.663147 113.037552,69.423447 
	C112.443909,71.979698 111.785629,74.610649 111.816132,77.200119 
	C111.857079,80.676170 109.505775,81.865303 107.129349,81.699753 
	C105.025215,81.553169 101.688240,80.140678 101.226112,78.591728 
	C98.938698,70.924881 97.424423,63.027367 96.147835,54.436794 
	C97.798409,56.805954 99.448975,59.175114 101.743141,62.468067 
	C103.515984,58.559010 104.601593,56.165260 106.022911,53.031288 
	C107.235306,56.208073 108.142578,58.585369 109.049850,60.962666 
	C109.642891,61.430473 110.235931,61.898281 110.828972,62.366089 
	C112.513344,59.981071 114.197708,57.596054 116.257721,55.209229 
z"/>
</svg>